<svg width="30" height="30" viewBox="0 0 30 30" fill="none" xmlns="http://www.w3.org/2000/svg">
<path d="M29.3 21.4937C29.1753 21.1407 28.9161 20.8513 28.5789 20.6886C28.2418 20.5259 27.854 20.503 27.5 20.625L23.6 21.8313C22.6125 22.7313 22.2375 22.5 15 22.5C14.8342 22.5 14.6753 22.4342 14.5581 22.3169C14.4408 22.1997 14.375 22.0408 14.375 21.875C14.375 21.7092 14.4408 21.5503 14.5581 21.4331C14.6753 21.3158 14.8342 21.25 15 21.25C22.5 21.25 22.2438 21.3937 22.7938 20.8437C23.0033 20.6123 23.1211 20.3122 23.125 20C23.125 19.6685 22.9933 19.3505 22.7589 19.1161C22.5245 18.8817 22.2065 18.75 21.875 18.75H15.1875C14.3187 18.75 13.5938 17.5 11.0625 17.5H6.875V24.0125L7.68125 24.4688C9.97445 25.7908 12.5396 26.571 15.1805 26.7497C17.8215 26.9285 20.4683 26.501 22.9187 25.5L28.5437 23.2312C28.8627 23.0869 29.1167 22.8292 29.2565 22.5081C29.3962 22.1871 29.4117 21.8256 29.3 21.4937Z" fill="#92929D"/>
<path d="M0.625 25.625H5.625V16.25H0.625V25.625ZM2.55 22.8875C2.58528 22.802 2.6391 22.7254 2.70759 22.6632C2.77607 22.601 2.85751 22.5548 2.94602 22.5279C3.03453 22.501 3.12791 22.494 3.21942 22.5076C3.31093 22.5212 3.39829 22.5549 3.47519 22.6063C3.55209 22.6577 3.61661 22.7256 3.66411 22.805C3.7116 22.8844 3.74088 22.9733 3.74983 23.0654C3.75878 23.1575 3.74718 23.2504 3.71587 23.3374C3.68455 23.4245 3.63431 23.5035 3.56875 23.5687C3.46642 23.6706 3.33197 23.7339 3.18824 23.7479C3.04451 23.7619 2.90038 23.7257 2.78034 23.6454C2.6603 23.5651 2.57177 23.4458 2.52977 23.3076C2.48778 23.1694 2.49493 23.021 2.55 22.8875Z" fill="#92929D"/>
<path d="M19.375 15.625C20.6111 15.625 21.8195 15.2584 22.8473 14.5717C23.8751 13.8849 24.6762 12.9088 25.1492 11.7668C25.6223 10.6247 25.7461 9.36807 25.5049 8.15569C25.2638 6.94331 24.6685 5.82966 23.7944 4.95559C22.9203 4.08151 21.8067 3.48625 20.5943 3.24509C19.3819 3.00394 18.1253 3.12771 16.9832 3.60076C15.8412 4.0738 14.8651 4.87488 14.1783 5.90269C13.4916 6.9305 13.125 8.13887 13.125 9.375C13.125 11.0326 13.7835 12.6223 14.9556 13.7944C16.1277 14.9665 17.7174 15.625 19.375 15.625ZM20 10H18.75C18.2527 10 17.7758 9.80246 17.4242 9.45083C17.0725 9.0992 16.875 8.62228 16.875 8.125C16.875 7.62772 17.0725 7.15081 17.4242 6.79918C17.7758 6.44755 18.2527 6.25 18.75 6.25V5.625C18.75 5.45924 18.8158 5.30027 18.9331 5.18306C19.0503 5.06585 19.2092 5 19.375 5C19.5408 5 19.6997 5.06585 19.8169 5.18306C19.9342 5.30027 20 5.45924 20 5.625V6.25H21.25C21.4158 6.25 21.5747 6.31585 21.6919 6.43306C21.8092 6.55027 21.875 6.70924 21.875 6.875C21.875 7.04076 21.8092 7.19973 21.6919 7.31694C21.5747 7.43415 21.4158 7.5 21.25 7.5H18.75C18.5842 7.5 18.4253 7.56585 18.3081 7.68306C18.1908 7.80027 18.125 7.95924 18.125 8.125C18.125 8.29076 18.1908 8.44973 18.3081 8.56694C18.4253 8.68415 18.5842 8.75 18.75 8.75H20C20.4973 8.75 20.9742 8.94755 21.3258 9.29918C21.6775 9.65081 21.875 10.1277 21.875 10.625C21.875 11.1223 21.6775 11.5992 21.3258 11.9508C20.9742 12.3025 20.4973 12.5 20 12.5V13.125C20 13.2908 19.9342 13.4497 19.8169 13.5669C19.6997 13.6842 19.5408 13.75 19.375 13.75C19.2092 13.75 19.0503 13.6842 18.9331 13.5669C18.8158 13.4497 18.75 13.2908 18.75 13.125V12.5H17.5C17.3342 12.5 17.1753 12.4342 17.0581 12.3169C16.9408 12.1997 16.875 12.0408 16.875 11.875C16.875 11.7092 16.9408 11.5503 17.0581 11.4331C17.1753 11.3159 17.3342 11.25 17.5 11.25H20C20.1658 11.25 20.3247 11.1842 20.4419 11.0669C20.5592 10.9497 20.625 10.7908 20.625 10.625C20.625 10.4592 20.5592 10.3003 20.4419 10.1831C20.3247 10.0659 20.1658 10 20 10Z" fill="#92929D"/>
</svg>
