<svg width="26" height="26" viewBox="0 0 26 26" fill="none" xmlns="http://www.w3.org/2000/svg">
<path fill-rule="evenodd" clip-rule="evenodd" d="M19.4747 3.5125C19.4747 1.85 20.8247 0.5 22.4872 0.5C24.1497 0.5 25.4997 1.85 25.4997 3.5125C25.4997 5.175 24.1497 6.525 22.4872 6.525C20.8247 6.525 19.4747 5.175 19.4747 3.5125ZM14.6621 16.4491L18.2746 11.7879L18.2246 11.8129C18.4246 11.5379 18.4621 11.1879 18.3246 10.8754C18.1883 10.5629 17.8871 10.3504 17.5633 10.3254C17.2246 10.2879 16.8883 10.4379 16.6871 10.7129L13.6633 14.6254L10.1995 11.9004C9.98701 11.7379 9.73701 11.6741 9.48701 11.7004C9.23826 11.7379 9.01326 11.8741 8.86201 12.0741L5.16326 16.8879L5.08701 17.0004C4.87451 17.3991 4.97451 17.9116 5.34951 18.1879C5.52451 18.3004 5.71201 18.3754 5.92451 18.3754C6.21326 18.3879 6.48701 18.2366 6.66201 18.0004L9.79951 13.9616L13.3621 16.6379L13.4746 16.7116C13.8746 16.9241 14.3746 16.8254 14.6621 16.4491ZM17.3121 2.72538C17.2621 3.03788 17.2371 3.35038 17.2371 3.66288C17.2371 6.47538 19.5121 8.74913 22.3121 8.74913C22.6246 8.74913 22.9246 8.71288 23.2371 8.66288V18.7491C23.2371 22.9879 20.7371 25.5004 16.4871 25.5004H7.25076C2.99951 25.5004 0.499512 22.9879 0.499512 18.7491V9.50038C0.499512 5.25038 2.99951 2.72538 7.25076 2.72538H17.3121Z" fill="#92929D"/>
</svg>
