<svg width="26" height="26" viewBox="0 0 26 26" fill="none" xmlns="http://www.w3.org/2000/svg">
<g clip-path="url(#clip0_120_2481)">
<path d="M5.40777 4.875H14.0918L15.9659 3.37567C16.604 2.8665 16.8424 2.03992 16.5726 1.26858C16.3029 0.49725 15.6019 0 14.7873 0H4.71227C3.8976 0 3.19668 0.498333 2.92693 1.26858C2.65718 2.03883 2.89552 2.8665 3.53252 3.37458L5.40777 4.875Z" fill="#92929D"/>
<path d="M18.4167 13.195L17.7017 13.91C17.2467 14.3758 16.6292 14.625 15.9792 14.625C15.3292 14.625 14.7117 14.3758 14.2567 13.91C13.3033 12.9567 13.3033 11.4183 14.2567 10.465L16.0442 8.6775C15.4917 7.865 14.885 7.12833 14.235 6.5H5.265C2.29667 9.40333 0 14.5058 0 18.6875C0 22.3275 1.92833 26 6.22917 26H13.5417C17.2142 26 19.5 23.1942 19.5 18.6875C19.5 16.9433 19.0992 15.0367 18.4167 13.195ZM9.33833 15.4375H10.1617C11.4292 15.4375 12.4583 16.4667 12.4583 17.7342C12.4583 18.8717 11.635 19.8142 10.5625 19.9983V20.8542C10.5625 21.2983 10.1942 21.6667 9.75 21.6667C9.30583 21.6667 8.9375 21.2983 8.9375 20.8542V20.0417H7.85417C7.41 20.0417 7.04167 19.6733 7.04167 19.2292C7.04167 18.785 7.41 18.4167 7.85417 18.4167H10.1617C10.53 18.4167 10.8333 18.1133 10.8333 17.745C10.8333 17.3658 10.53 17.0625 10.1617 17.0625H9.33833C8.07083 17.0625 7.04167 16.0333 7.04167 14.7658C7.04167 13.6283 7.865 12.6858 8.9375 12.5017V11.6458C8.9375 11.2017 9.30583 10.8333 9.75 10.8333C10.1942 10.8333 10.5625 11.2017 10.5625 11.6458V12.4583H11.6458C12.09 12.4583 12.4583 12.8267 12.4583 13.2708C12.4583 13.715 12.09 14.0833 11.6458 14.0833H9.33833C8.97 14.0833 8.66667 14.3867 8.66667 14.755C8.66667 15.1342 8.97 15.4375 9.33833 15.4375Z" fill="#92929D"/>
<path d="M24.1042 6.5H21.3959C21.0676 6.5 20.7708 6.69825 20.6451 7.00158C20.5195 7.30492 20.5888 7.65483 20.8217 7.88667L21.5237 8.58867L20.4696 9.5615L19.0906 8.77283C18.7721 8.59083 18.3723 8.645 18.1134 8.905L15.4051 11.6133C15.0876 11.9308 15.0876 12.4453 15.4051 12.7628C15.5632 12.9209 15.7712 13.0011 15.9792 13.0011C16.1872 13.0011 16.3952 12.922 16.5534 12.7628L18.823 10.4932L20.1793 11.2688C20.4881 11.4454 20.8737 11.401 21.1337 11.1605L22.6731 9.74025L23.529 10.5961C23.685 10.751 23.893 10.8333 24.1042 10.8333C24.2093 10.8333 24.3144 10.8127 24.4151 10.7716C24.7185 10.6459 24.9167 10.3491 24.9167 10.0208V7.3125C24.9167 6.864 24.5527 6.5 24.1042 6.5Z" fill="#92929D"/>
</g>
<defs>
<clipPath id="clip0_120_2481">
<rect width="26" height="26" fill="white"/>
</clipPath>
</defs>
</svg>
