<svg width="22" height="22" viewBox="0 0 22 22" fill="none" xmlns="http://www.w3.org/2000/svg">
<g clip-path="url(#clip0_120_2564)">
<path d="M20.4898 1.51027C18.4761 -0.503416 15.2114 -0.503416 13.1977 1.51023L8.8882 5.81974C6.80529 7.90273 6.99814 11.2216 8.8882 13.1118C9.20471 13.4283 9.55491 13.6864 9.9247 13.8983L10.7112 13.1118C11.2271 12.5958 11.0455 11.9927 11.0363 11.5574C10.923 11.4772 10.8129 11.3904 10.7112 11.2888C9.74131 10.3189 9.69769 8.65627 10.7112 7.64273C10.8618 7.49221 14.9293 3.42466 15.0207 3.33331C16.0261 2.32788 17.6613 2.32788 18.6667 3.33331C19.6721 4.33873 19.6721 5.97391 18.6667 6.97933L15.8182 9.82786C15.9005 10.2836 16.3949 11.3633 16.1406 13.1442C16.153 13.132 16.1679 13.1242 16.1803 13.1118L20.4898 8.80233C22.5034 6.78864 22.5034 3.52396 20.4898 1.51027Z" fill="#92929D"/>
<path d="M13.4457 8.55436C13.1292 8.23786 12.779 7.97979 12.4093 7.76782L11.6227 8.55436C11.1068 9.07025 11.2883 9.6734 11.2976 10.1086C11.4109 10.1889 11.5211 10.2757 11.6227 10.3773C12.5927 11.3472 12.6363 13.0098 11.6227 14.0233C11.4719 14.1742 7.06739 18.5787 6.97926 18.6668C5.97384 19.6722 4.33866 19.6722 3.33324 18.6668C2.32781 17.6614 2.32781 16.0262 3.33324 15.0208L6.5158 11.8382C6.43343 11.3824 5.93903 10.3028 6.19336 8.52184C6.18095 8.53404 6.16599 8.54199 6.15362 8.55432L1.5102 13.1978C-0.5034 15.2115 -0.5034 18.4762 1.5102 20.4899C3.52389 22.5035 6.78853 22.5035 8.80221 20.4899L13.4457 15.8464C15.49 13.8021 15.3782 10.4869 13.4457 8.55436Z" fill="#92929D"/>
</g>
<defs>
<clipPath id="clip0_120_2564">
<rect width="22" height="22" fill="white"/>
</clipPath>
</defs>
</svg>
