<svg width="24" height="24" viewBox="0 0 24 24" fill="none" xmlns="http://www.w3.org/2000/svg">
<g clip-path="url(#clip0_120_2536)">
<path d="M10.3639 23.9939C4.94201 23.3161 0.682773 19.0569 0.00565545 13.6364C-0.047415 13.2176 0.279775 12.8459 0.703401 12.8459H3.54586C3.88922 12.8459 4.18177 13.0939 4.23948 13.4317C4.78612 16.6691 7.32915 19.2128 10.5686 19.7601C10.9064 19.8178 11.1543 20.1104 11.1543 20.4537V23.2962C11.1543 23.7144 10.7917 24.0449 10.3639 23.9939Z" fill="#92929D"/>
<path d="M3.54585 11.2519H0.703396C0.279535 11.2519 -0.0473735 10.8801 0.00565012 10.4615C0.75009 4.49773 5.84579 0.000244141 11.8576 0.000244141C14.5284 0.000244141 17.0604 0.871031 19.1804 2.51856C19.5175 2.78162 19.5428 3.27486 19.2463 3.57134L17.2369 5.58146C16.9937 5.82524 16.6119 5.85548 16.3317 5.65699C15.0125 4.71681 13.4652 4.21963 11.8575 4.21963C8.07424 4.21963 4.86985 6.93091 4.23943 10.6661C4.18176 11.004 3.88922 11.2519 3.54585 11.2519Z" fill="#92929D"/>
<path d="M12.748 23.2969V20.4544C12.748 20.1111 12.996 19.8185 13.3338 19.7608C17.0691 19.1304 19.7804 15.926 19.7804 12.1427C19.7804 10.535 19.2832 8.98778 18.343 7.66852C18.1438 7.38901 18.1754 7.00579 18.4185 6.76337L20.4286 4.75395C20.7213 4.46127 21.2161 4.47983 21.4814 4.81987C23.129 6.93988 23.9997 9.47193 23.9997 12.1427C23.9997 18.1544 19.5022 23.2501 13.5385 23.9946C13.106 24.0462 12.748 23.7102 12.748 23.2969Z" fill="#92929D"/>
<path d="M9.18548 9.18907C9.18548 8.8007 8.87062 8.48584 8.48225 8.48584H7.07579C6.68742 8.48584 6.37256 8.8007 6.37256 9.18907V14.8149C6.37256 15.2033 6.68742 15.5181 7.07579 15.5181H8.48225C8.87062 15.5181 9.18548 15.2033 9.18548 14.8149V9.18907Z" fill="#92929D"/>
<path d="M13.4047 14.8149V7.78258C13.4047 7.39421 13.0899 7.07935 12.7015 7.07935H11.295C10.9067 7.07935 10.5918 7.39421 10.5918 7.78258V14.8149C10.5918 15.2033 10.9067 15.5181 11.295 15.5181H12.7015C13.0899 15.5181 13.4047 15.2033 13.4047 14.8149Z" fill="#92929D"/>
<path d="M17.624 14.815V12.0021C17.624 11.6137 17.3091 11.2988 16.9207 11.2988H15.5143C15.1259 11.2988 14.811 11.6137 14.811 12.0021V14.815C14.811 15.2034 15.1259 15.5182 15.5143 15.5182H16.9207C17.3091 15.5182 17.624 15.2034 17.624 14.815Z" fill="#92929D"/>
</g>
<defs>
<clipPath id="clip0_120_2536">
<rect width="24" height="24" fill="white"/>
</clipPath>
</defs>
</svg>
