<svg width="28" height="24" viewBox="0 0 28 24" fill="none" xmlns="http://www.w3.org/2000/svg">
<g clip-path="url(#clip0_120_2505)">
<path d="M24.8619 3.80755C23.2905 2.2914 22.8482 1.63257 22.3805 1.08167C21.9995 0.633351 21.6984 0.278959 21.2341 0.10243C20.6399 -0.122729 20.0643 0.0604628 19.5307 0.292282C18.2651 0.839857 16.8908 1.55796 16.3645 1.77047L15.4812 1.25953C14.6921 0.805173 13.7975 0.56603 12.8869 0.56603C11.9763 0.56603 11.0817 0.805173 10.2926 1.25953L9.40929 1.7698C8.8837 1.5593 7.5061 0.837191 6.24375 0.291616C5.71083 0.059796 5.13394 -0.123395 4.54041 0.101763C4.0741 0.278292 3.77434 0.634683 3.39396 1.081C2.92766 1.63191 2.48334 2.29073 0.911895 3.80688C-0.287172 5.04392 -0.387761 6.76325 1.11174 9.12275C1.21433 9.28329 1.32158 9.44117 1.43216 9.59638V15.1847C1.43335 16.096 1.67351 16.991 2.12867 17.7805C2.58384 18.57 3.23809 19.2262 4.02614 19.6839L10.2879 23.3057C11.077 23.7604 11.9716 23.9997 12.8823 23.9997C13.7929 23.9997 14.6876 23.7604 15.4766 23.3057L21.7384 19.6839C22.5264 19.2262 23.1807 18.57 23.6358 17.7805C24.091 16.991 24.3312 16.096 24.3323 15.1847V9.59704C24.4436 9.44183 24.5508 9.28396 24.6528 9.12341C26.1623 6.76591 26.0603 5.04459 24.8619 3.80755ZM1.2503 6.60537C0.855939 5.69075 0.794653 4.94 1.09842 4.74615L1.15171 4.70818C2.99427 2.9642 3.57582 2.14617 4.09142 1.53998C4.23797 1.36744 4.40118 1.1756 4.49711 1.08766C4.62649 1.12374 4.75279 1.17007 4.87481 1.22622C5.51765 1.50334 6.32302 2.00961 6.86793 2.2361L5.84872 3.04747C5.71549 2.83764 4.82086 2.04825 4.58304 1.98696C5.96064 4.3851 5.75546 7.47869 5.24919 9.0921C5.12728 9.48047 5.00804 10.0174 4.63233 10.2579C4.22065 10.3391 2.26684 8.9642 1.2503 6.60404V6.60537ZM22.7536 15.1128C22.7526 15.7351 22.5883 16.3464 22.2771 16.8854C21.966 17.4244 21.5188 17.8723 20.9803 18.1844L14.3907 21.9874C13.8513 22.2977 13.2398 22.461 12.6175 22.461C11.9951 22.461 11.3836 22.2977 10.8442 21.9874L4.25863 18.1844C3.72013 17.8723 3.27295 17.4244 2.96178 16.8854C2.6506 16.3464 2.48631 15.7351 2.48534 15.1128V11.2811L2.58526 11.3583C3.41128 11.9719 4.08942 12.1637 4.61502 12.1631C4.9749 12.167 5.32854 12.0688 5.63489 11.8799C6.40362 11.3996 6.91856 10.555 7.1244 9.43717C7.38686 8.01494 7.3742 6.10643 6.75935 4.50168L10.8462 2.14218C11.3855 1.83142 11.997 1.66785 12.6195 1.66785C13.2419 1.66785 13.8534 1.83142 14.3927 2.14218L18.4802 4.50101C17.8654 6.10576 17.8521 8.01428 18.1145 9.43651C18.3204 10.5543 18.836 11.399 19.604 11.8793C19.9105 12.0678 20.2641 12.1658 20.6239 12.1617C21.1495 12.1617 21.8283 11.9705 22.6537 11.357L22.7536 11.2797V15.1128ZM23.9886 6.60404C22.9721 8.96221 21.0183 10.3391 20.6086 10.2565C20.2322 10.0161 20.113 9.47914 19.9917 9.09077C19.4854 7.47736 19.2809 4.3811 20.6579 1.98563C20.4187 2.04558 19.5214 2.8363 19.3922 3.04614L18.371 2.2361C18.9166 2.01095 19.7213 1.50334 20.3641 1.22622C20.4861 1.17007 20.6124 1.12374 20.7418 1.08766C20.8377 1.1756 21.0009 1.36744 21.1482 1.53998C21.6631 2.14617 22.2446 2.9642 24.0872 4.70818L24.1405 4.74615C24.4443 4.942 24.383 5.68942 23.9886 6.60404Z" fill="#92929D"/>
<path d="M1.25056 6.60414C0.856204 5.68951 0.794918 4.93876 1.09868 4.74491L1.15197 4.70695C2.99454 2.96297 3.57609 2.14494 4.09169 1.53874C4.23824 1.36621 4.40145 1.17436 4.49737 1.08643C4.62676 1.1225 4.75306 1.16883 4.87508 1.22499C5.51791 1.50344 6.32329 2.00971 6.8682 2.2362L5.84899 3.04757C5.71576 2.83773 4.82112 2.04835 4.5833 1.98706C5.9609 4.38519 5.75573 7.47879 5.24945 9.0922C5.12755 9.48056 5.00831 10.0175 4.6326 10.258C4.22092 10.3392 2.26711 8.9643 1.25056 6.60414Z" fill="#92929D"/>
<path d="M22.7536 15.113C22.7526 15.7354 22.5883 16.3466 22.2772 16.8856C21.966 17.4246 21.5188 17.8725 20.9803 18.1846L14.3908 21.9876C13.8513 22.2979 13.2398 22.4613 12.6175 22.4613C11.9951 22.4613 11.3837 22.2979 10.8442 21.9876L4.25864 18.1846C3.72014 17.8725 3.27297 17.4246 2.96179 16.8856C2.65061 16.3466 2.48633 15.7354 2.48535 15.113V11.0695C2.51866 11.0954 2.55197 11.1214 2.58527 11.1461C3.4113 11.7623 4.08944 12.1619 4.61503 12.1619C4.97492 12.1659 5.32855 12.0677 5.6349 11.8788C6.40364 11.3985 6.91857 10.5539 7.12441 9.43607C7.38687 8.01384 7.37422 6.10533 6.75936 4.50057L10.8462 2.14108C11.3855 1.83032 11.997 1.66675 12.6195 1.66675C13.2419 1.66675 13.8534 1.83032 14.3928 2.14108L18.4802 4.50124C17.8654 6.10599 17.8521 8.01451 18.1145 9.43674C18.3204 10.5545 18.836 11.3992 19.604 11.8795C19.9105 12.0681 20.2641 12.166 20.6239 12.1619C21.1495 12.1619 21.8283 11.7623 22.6537 11.1447C22.687 11.1201 22.7203 11.0941 22.7536 11.0681V15.113Z" fill="#92929D"/>
<path d="M23.9887 6.60427C22.9722 8.96243 21.0184 10.3394 20.6087 10.2568C20.2323 10.0163 20.1131 9.47937 19.9918 9.091C19.4856 7.47759 19.2811 4.38133 20.658 1.98586C20.4188 2.04581 19.5215 2.83653 19.3923 3.04637L18.3711 2.23633C18.9167 2.01117 19.7214 1.50357 20.3642 1.22645C20.4862 1.1703 20.6125 1.12396 20.7419 1.08789C20.8378 1.17582 21.001 1.36767 21.1483 1.5402C21.6632 2.1464 22.2447 2.96443 24.0873 4.70841L24.1406 4.74638C24.4444 4.94223 24.3831 5.68964 23.9887 6.60427Z" fill="#92929D"/>
<path d="M20.9803 17.4138L14.3908 21.2169C13.8513 21.5272 13.2398 21.6905 12.6175 21.6905C11.9951 21.6905 11.3837 21.5272 10.8442 21.2169L4.25864 17.4138C3.72014 17.1016 3.27297 16.6536 2.9618 16.1145C2.65063 15.5753 2.48635 14.964 2.48535 14.3416V15.113C2.48633 15.7353 2.65061 16.3466 2.96179 16.8856C3.27297 17.4246 3.72014 17.8725 4.25864 18.1846L10.8462 21.9876C11.3857 22.2979 11.9971 22.4612 12.6195 22.4612C13.2418 22.4612 13.8533 22.2979 14.3928 21.9876L20.9803 18.1846C21.5188 17.8725 21.966 17.4246 22.2772 16.8856C22.5883 16.3466 22.7526 15.7353 22.7536 15.113V14.3416C22.7526 14.964 22.5883 15.5753 22.2771 16.1145C21.966 16.6536 21.5188 17.1016 20.9803 17.4138Z" fill="#0D1119"/>
<path d="M15.8146 13.1611C16.7146 13.7167 17.2721 14.4848 17.2721 15.3334C17.2721 17.0268 15.0552 18.3977 12.3206 18.3977C11.1029 18.3977 9.98913 18.1246 9.12646 17.673C10.0218 18.2252 11.2581 18.5669 12.6197 18.5669C15.351 18.5669 17.5712 17.194 17.5712 15.5026C17.5712 14.5654 16.8884 13.7254 15.8146 13.1611Z" fill="#878796"/>
<path d="M17.2721 15.3354C17.2721 14.4867 16.7145 13.7186 15.8145 13.1631C14.9519 12.7114 13.8374 12.439 12.617 12.439C9.88247 12.439 7.66553 13.8112 7.66553 15.5032C7.66553 16.3526 8.22309 17.1207 9.12373 17.6756C9.98572 18.1272 11.1002 18.4003 12.3179 18.4003C15.0571 18.4017 17.2721 17.0287 17.2721 15.3354Z" fill="#A9A9B9"/>
<path d="M10.8229 16.6731C11.2029 16.6731 11.511 16.1237 11.511 15.446C11.511 14.7684 11.2029 14.219 10.8229 14.219C10.4429 14.219 10.1348 14.7684 10.1348 15.446C10.1348 16.1237 10.4429 16.6731 10.8229 16.6731Z" fill="#0D1119"/>
<path d="M14.4162 16.6731C14.7962 16.6731 15.1043 16.1237 15.1043 15.446C15.1043 14.7684 14.7962 14.219 14.4162 14.219C14.0361 14.219 13.728 14.7684 13.728 15.446C13.728 16.1237 14.0361 16.6731 14.4162 16.6731Z" fill="#0D1119"/>
<path d="M15.7809 10.4671C15.7809 10.7463 15.7476 11.0245 15.6816 11.2958C16.1996 11.4524 16.7005 11.6604 17.1771 11.9167C17.3843 11.0447 17.1605 7.35424 15.6117 7.22367C15.0854 7.17904 14.6944 7.5714 14.4053 8.12164C15.1787 8.24954 15.7809 9.25076 15.7809 10.4671Z" fill="#878796"/>
<path d="M15.7811 10.4671C15.7811 9.25075 15.1816 8.24953 14.4055 8.11963C13.9259 9.03358 13.7301 10.3845 13.6694 10.9001C14.3519 10.9636 15.0262 11.0962 15.6819 11.2958C15.7478 11.0245 15.7812 10.7463 15.7811 10.4671Z" fill="#A9A9B9"/>
<path d="M15.2921 10.1267C15.6386 10.1267 15.9196 9.80433 15.9196 9.40663C15.9196 9.00893 15.6386 8.68652 15.2921 8.68652C14.9455 8.68652 14.6646 9.00893 14.6646 9.40663C14.6646 9.80433 14.9455 10.1267 15.2921 10.1267Z" fill="#0D1119"/>
<path d="M9.4612 10.4672C9.4612 9.25081 10.0607 8.24958 10.8361 8.11969C10.547 7.56945 10.1567 7.17709 9.62973 7.22172C8.0816 7.35495 7.85778 11.0427 8.06495 11.9147C8.54069 11.6592 9.04079 11.4519 9.55779 11.2959C9.49238 11.0245 9.45995 10.7463 9.4612 10.4672Z" fill="#878796"/>
<path d="M9.46146 10.4671C9.46021 10.7462 9.49264 11.0244 9.55805 11.2958C10.2138 11.0968 10.8881 10.9649 11.5705 10.9021C11.5099 10.3852 11.3134 9.03687 10.8337 8.12158C10.061 8.24948 9.46146 9.25071 9.46146 10.4671Z" fill="#A9A9B9"/>
<path d="M9.94685 10.1267C10.2934 10.1267 10.5744 9.80433 10.5744 9.40663C10.5744 9.00893 10.2934 8.68652 9.94685 8.68652C9.60028 8.68652 9.31934 9.00893 9.31934 9.40663C9.31934 9.80433 9.60028 10.1267 9.94685 10.1267Z" fill="#0D1119"/>
<path d="M12.6797 19.9039C12.8829 20.5034 13.6123 20.8025 14.3131 20.5667C15.0139 20.3309 15.4156 19.6521 15.2124 19.0505L12.6797 19.9039Z" fill="#0D1119"/>
<path d="M20.6074 10.2607C21.0178 10.3433 22.9716 8.96568 23.9881 6.60752C24.3825 5.69289 24.4438 4.94614 24.14 4.7483L24.0861 4.71099C22.6871 3.38402 22.013 2.59397 21.5454 2.02441C21.5454 2.02441 23.318 4.38724 23.358 4.98611C23.3979 5.58498 21.6813 8.49805 20.9632 8.69123C20.3303 8.85977 19.7601 7.40956 19.6309 7.0585C19.6724 7.74971 19.7931 8.43387 19.9906 9.09758C20.1125 9.48261 20.2311 10.0202 20.6074 10.2607Z" fill="#0D1119"/>
<path d="M4.62955 10.2606C5.00592 10.0202 5.12516 9.48259 5.2464 9.09489C5.75268 7.48148 5.95718 4.38455 4.58025 1.98975C4.58025 1.98975 5.16247 7.05647 4.19522 8.29951C3.63632 9.01828 1.24951 6.60749 1.24951 6.60749C2.26672 8.96432 4.21987 10.3433 4.62955 10.2606Z" fill="#0D1119"/>
<path d="M12.623 2.32741C13.2818 2.61119 17.2334 4.97934 18.1727 5.5509C18.25 5.19374 18.3537 4.84282 18.4831 4.50105L14.3963 2.14155C13.8568 1.8308 13.2452 1.66724 12.6226 1.66724C12.0001 1.66724 11.3885 1.8308 10.849 2.14155L9.46143 2.94093C9.46143 2.94093 11.5072 1.84778 12.623 2.32741Z" fill="#0D1119"/>
<path d="M19.7451 14.7358C19.9187 14.7358 20.0595 14.595 20.0595 14.4214C20.0595 14.2477 19.9187 14.1069 19.7451 14.1069C19.5714 14.1069 19.4307 14.2477 19.4307 14.4214C19.4307 14.595 19.5714 14.7358 19.7451 14.7358Z" fill="#0D1119"/>
<path d="M21.0029 15.28C20.9407 15.28 20.8799 15.2985 20.8281 15.3331C20.7764 15.3676 20.7361 15.4168 20.7123 15.4743C20.6886 15.5318 20.6824 15.595 20.6946 15.656C20.7068 15.717 20.7368 15.7731 20.7808 15.817C20.8248 15.861 20.8809 15.8909 20.942 15.9029C21.003 15.915 21.0662 15.9086 21.1237 15.8847C21.1811 15.8608 21.2302 15.8204 21.2647 15.7687C21.2991 15.7169 21.3175 15.656 21.3173 15.5938C21.3173 15.5525 21.3092 15.5117 21.2934 15.4736C21.2776 15.4355 21.2544 15.4008 21.2252 15.3717C21.196 15.3425 21.1613 15.3195 21.1232 15.3037C21.085 15.288 21.0442 15.2799 21.0029 15.28Z" fill="#0D1119"/>
<path d="M19.1162 15.6523C19.054 15.6523 18.9932 15.6708 18.9415 15.7053C18.8898 15.7399 18.8495 15.789 18.8257 15.8464C18.8019 15.9039 18.7957 15.9671 18.8078 16.0281C18.8199 16.0891 18.8499 16.1451 18.8938 16.1891C18.9378 16.2331 18.9938 16.263 19.0548 16.2751C19.1158 16.2873 19.1791 16.2811 19.2365 16.2573C19.294 16.2335 19.3431 16.1932 19.3776 16.1414C19.4122 16.0897 19.4306 16.029 19.4306 15.9668C19.4307 15.9254 19.4226 15.8845 19.4068 15.8463C19.3911 15.8082 19.3679 15.7735 19.3387 15.7442C19.3095 15.715 19.2748 15.6919 19.2366 15.6761C19.1984 15.6603 19.1575 15.6523 19.1162 15.6523Z" fill="#0D1119"/>
<path d="M5.49362 14.7358C5.66727 14.7358 5.80804 14.595 5.80804 14.4214C5.80804 14.2477 5.66727 14.1069 5.49362 14.1069C5.31997 14.1069 5.1792 14.2477 5.1792 14.4214C5.1792 14.595 5.31997 14.7358 5.49362 14.7358Z" fill="#0D1119"/>
<path d="M4.23581 15.28C4.17359 15.28 4.11278 15.2985 4.06106 15.3331C4.00934 15.3676 3.96903 15.4168 3.94526 15.4743C3.92148 15.5318 3.91529 15.595 3.92748 15.656C3.93966 15.717 3.96968 15.7731 4.01372 15.817C4.05775 15.861 4.11384 15.8909 4.17488 15.9029C4.23591 15.915 4.29915 15.9086 4.35659 15.8847C4.41404 15.8608 4.4631 15.8204 4.49756 15.7687C4.53203 15.7169 4.55036 15.656 4.55023 15.5938C4.55005 15.5105 4.51685 15.4307 4.4579 15.3719C4.39896 15.3131 4.31908 15.28 4.23581 15.28Z" fill="#0D1119"/>
<path d="M6.12253 15.6523C6.06034 15.6523 5.99955 15.6708 5.94784 15.7053C5.89614 15.7399 5.85584 15.789 5.83204 15.8464C5.80824 15.9039 5.80202 15.9671 5.81415 16.0281C5.82628 16.0891 5.85622 16.1451 5.9002 16.1891C5.94417 16.2331 6.0002 16.263 6.06119 16.2751C6.12218 16.2873 6.1854 16.2811 6.24285 16.2573C6.30031 16.2335 6.34941 16.1932 6.38396 16.1414C6.41851 16.0897 6.43695 16.029 6.43695 15.9668C6.43695 15.9255 6.42882 15.8846 6.41302 15.8464C6.39721 15.8083 6.37405 15.7736 6.34486 15.7444C6.31566 15.7152 6.281 15.6921 6.24285 15.6763C6.2047 15.6605 6.16382 15.6523 6.12253 15.6523Z" fill="#0D1119"/>
</g>
<defs>
<clipPath id="clip0_120_2505">
<rect width="27.5293" height="24" fill="white"/>
</clipPath>
</defs>
</svg>
