<svg width="22" height="22" viewBox="0 0 22 22" fill="none" xmlns="http://www.w3.org/2000/svg">
<path d="M22 11.0001C22 10.8143 21.9484 10.6321 21.8507 10.474C21.753 10.3159 21.6132 10.1882 21.447 10.1051L18.236 8.5001L21.447 6.9001C21.6134 6.81717 21.7534 6.68948 21.8512 6.53138C21.9491 6.37328 22.0009 6.19103 22.0009 6.00511C22.0009 5.81918 21.9491 5.63693 21.8512 5.47883C21.7534 5.32073 21.6134 5.19304 21.447 5.1101L11.447 0.110105C11.3082 0.0407462 11.1551 0.00463867 11 0.00463867C10.8448 0.00463867 10.6918 0.0407462 10.553 0.110105L0.552957 5.1101C0.38655 5.19304 0.24656 5.32073 0.14871 5.47883C0.0508594 5.63693 -0.000976562 5.81918 -0.000976562 6.00511C-0.000976562 6.19103 0.0508594 6.37328 0.14871 6.53138C0.24656 6.68948 0.38655 6.81717 0.552957 6.9001L3.76396 8.5001L0.552957 10.1051C0.38655 10.188 0.24656 10.3157 0.14871 10.4738C0.0508594 10.6319 -0.000976562 10.8142 -0.000976562 11.0001C-0.000976563 11.186 0.0508594 11.3683 0.14871 11.5264C0.24656 11.6845 0.38655 11.8122 0.552957 11.8951L3.76396 13.5001L0.552957 15.1051C0.38655 15.188 0.24656 15.3157 0.14871 15.4738C0.0508594 15.6319 -0.000976562 15.8142 -0.000976562 16.0001C-0.000976563 16.186 0.0508594 16.3683 0.14871 16.5264C0.24656 16.6845 0.38655 16.8122 0.552957 16.8951L10.553 21.8951C10.6918 21.9645 10.8448 22.0006 11 22.0006C11.1551 22.0006 11.3082 21.9645 11.447 21.8951L21.447 16.8951C21.6134 16.8122 21.7534 16.6845 21.8512 16.5264C21.9491 16.3683 22.0009 16.186 22.0009 16.0001C22.0009 15.8142 21.9491 15.6319 21.8512 15.4738C21.7534 15.3157 21.6134 15.188 21.447 15.1051L18.236 13.5001L21.447 11.9001C21.614 11.8167 21.7543 11.6881 21.852 11.5291C21.9497 11.37 22.001 11.1868 22 11.0001ZM18.764 16.0001L11 19.8821L3.23596 16.0001L5.99996 14.6181L10.553 16.9001C10.6918 16.9695 10.8448 17.0056 11 17.0056C11.1551 17.0056 11.3082 16.9695 11.447 16.9001L16 14.6181L18.764 16.0001ZM11 14.8821L3.23596 11.0001L5.99996 9.6181L10.553 11.9001C10.6918 11.9695 10.8448 12.0056 11 12.0056C11.1551 12.0056 11.3082 11.9695 11.447 11.9001L16 9.6181L18.764 11.0001L11 14.8821Z" fill="#92929D"/>
</svg>
