<?xml version="1.0" encoding="utf-8"?>
<!-- Generator: Adobe Illustrator 24.0.1, SVG Export Plug-In . SVG Version: 6.00 Build 0)  -->
<svg version="1.1" id="Layer_1" xmlns="http://www.w3.org/2000/svg" xmlns:xlink="http://www.w3.org/1999/xlink" x="0px" y="0px" height="24" width="24"
	 viewBox="0 0 500 500" style="enable-background:new 0 0 500 500;" xml:space="preserve">
<style type="text/css">
	.st0{fill:#733BAD;}
	.st1{fill:#D3D3D3;}
	.st2{fill:#FFFFFF;}
</style>
<circle class="st0" cx="250" cy="261.66" r="209.76"/>
<g>
	<path class="st1" d="M320.73,322.96l43.59,25.29c2.22,1.29,2.2,4.49-0.02,5.76l-134.29,76.58c-1.98,1.13-4.48-0.02-4.91-2.26
		l-6.75-35.38c-0.13-0.68-0.04-1.38,0.24-2.01l6.93-15.12c0.29-0.63,0.77-1.16,1.38-1.51l90.52-51.37
		C318.45,322.36,319.71,322.36,320.73,322.96z"/>
	<path class="st2" d="M182.3,223.98l44.06-24.5c2.22-1.23,4.94,0.37,4.94,2.9v172.06v53.26c0,2.56-2.76,4.15-4.98,2.88l-44.06-25.32
		c-1.03-0.59-1.67-1.69-1.67-2.88V226.88C180.59,225.67,181.24,224.56,182.3,223.98z"/>
</g>
<g>
	<path class="st1" d="M164.14,216.23l-43.59-25.29c-2.22-1.29-2.2-4.49,0.02-5.76l134.29-76.58c1.98-1.13,4.48,0.02,4.91,2.26
		l6.75,35.38c0.13,0.68,0.04,1.38-0.24,2.01l-6.93,15.12c-0.29,0.63-0.77,1.16-1.38,1.51l-90.52,51.37
		C166.43,216.82,165.17,216.82,164.14,216.23z"/>
	<path class="st2" d="M302.38,315.21l-44.06,24.5c-2.22,1.23-4.94-0.37-4.94-2.9V164.74v-53.26c0-2.56,2.76-4.15,4.98-2.88
		l44.06,25.32c1.03,0.59,1.67,1.69,1.67,2.88V312.3C304.09,313.51,303.44,314.62,302.38,315.21z"/>
</g>
</svg>
