<?xml version="1.0" encoding="UTF-8"?><svg xmlns="http://www.w3.org/2000/svg" xmlns:xlink="http://www.w3.org/1999/xlink" height="35" width="35" viewBox="0 0 941.46 964.09"><defs><style>.f{fill:url(#e);}.g{fill:url(#d);}.h{fill:#061b5b;font-family:Kabel-Heavy, Kabel-Heavy;font-size:300px;}</style><linearGradient id="d" x1="470.73" y1="30.51" x2="470.73" y2="946.27" gradientTransform="matrix(1, 0, 0, 1, 0, 0)" gradientUnits="userSpaceOnUse"><stop offset="0" stop-color="#526bff"/><stop offset="1" stop-color="#ff5a9d"/></linearGradient><linearGradient id="e" x1="470.73" y1="30.51" x2="470.73" y2="946.27" xlink:href="#d"/></defs><g id="a"/><g id="b"><g id="c"><g><path class="g" d="M676.31,66.4H265.15c-21.28,0-40.95,11.35-51.59,29.79L7.98,452.26c-10.64,18.43-10.64,41.14,0,59.57l205.58,356.07c10.64,18.43,30.31,29.79,51.59,29.79h411.16c21.28,0,40.95-11.35,51.59-29.79l205.58-356.07c10.64-18.43,10.64-41.14,0-59.57L727.9,96.19c-10.64-18.43-30.31-29.79-51.59-29.79Z"/><path class="f" d="M470.73,964.09c-12.26,0-24.52-3.16-35.46-9.47L79.2,749.04c-21.87-12.63-35.46-36.16-35.46-61.42V276.47c0-25.25,13.59-48.79,35.46-61.42L435.27,9.47c21.87-12.63,49.05-12.63,70.92,0l356.07,205.58c21.87,12.63,35.46,36.16,35.46,61.42v411.16c0,25.26-13.59,48.79-35.46,61.42l-356.07,205.58c-10.94,6.31-23.2,9.47-35.46,9.47Zm0-941.41c-8.34,0-16.67,2.15-24.11,6.44L90.54,234.7c-14.87,8.59-24.11,24.59-24.11,41.77v411.16c0,17.17,9.24,33.18,24.11,41.77l356.07,205.58c14.87,8.59,33.35,8.58,48.23,0l356.07-205.58c14.87-8.59,24.11-24.59,24.11-41.77V276.47c0-17.17-9.24-33.18-24.11-41.77L494.84,29.12c-7.44-4.29-15.78-6.44-24.12-6.44Z"/></g><text class="h" transform="translate(145.78 583.96)"><tspan x="0" y="0">PHLP</tspan></text></g></g></svg>