<?xml version="1.0" encoding="UTF-8"?><svg xmlns="http://www.w3.org/2000/svg" xmlns:xlink="http://www.w3.org/1999/xlink" viewBox="0 0 941.46 964.09"><defs><style>.f{fill:url(#e);}.g{fill:url(#d);}.h{fill:#061b5b;}</style><linearGradient id="d" x1="470.73" y1="30.51" x2="470.73" y2="946.27" gradientTransform="matrix(1, 0, 0, 1, 0, 0)" gradientUnits="userSpaceOnUse"><stop offset="0" stop-color="#526bff"/><stop offset="1" stop-color="#ff5a9d"/></linearGradient><linearGradient id="e" x1="470.73" y1="30.51" x2="470.73" y2="946.27" xlink:href="#d"/></defs><g id="a"/><g id="b"><g id="c"><g><path class="g" d="M676.31,66.4H265.15c-21.28,0-40.95,11.35-51.59,29.79L7.98,452.26c-10.64,18.43-10.64,41.14,0,59.57l205.58,356.07c10.64,18.43,30.31,29.79,51.59,29.79h411.16c21.28,0,40.95-11.35,51.59-29.79l205.58-356.07c10.64-18.43,10.64-41.14,0-59.57L727.9,96.19c-10.64-18.43-30.31-29.79-51.59-29.79Z"/><path class="f" d="M470.73,964.09c-12.26,0-24.52-3.16-35.46-9.47L79.2,749.04c-21.87-12.63-35.46-36.16-35.46-61.42V276.47c0-25.25,13.59-48.79,35.46-61.42L435.27,9.47c21.87-12.63,49.05-12.63,70.92,0l356.07,205.58c21.87,12.63,35.46,36.16,35.46,61.42v411.16c0,25.26-13.59,48.79-35.46,61.42l-356.07,205.58c-10.94,6.31-23.2,9.47-35.46,9.47Zm0-941.41c-8.34,0-16.67,2.15-24.11,6.44L90.54,234.7c-14.87,8.59-24.11,24.59-24.11,41.77v411.16c0,17.17,9.24,33.18,24.11,41.77l356.07,205.58c14.87,8.59,33.35,8.58,48.23,0l356.07-205.58c14.87-8.59,24.11-24.59,24.11-41.77V276.47c0-17.17-9.24-33.18-24.11-41.77L494.84,29.12c-7.44-4.29-15.78-6.44-24.12-6.44Z"/><g><path class="h" d="M760.79,417.58c-5-72.76-141.08-122.7-303.97-111.52-162.87,11.18-290.87,79.25-285.87,152.01,1.99,28.94,24.71,54.27,61.6,73.58,3.16,1.65,6.95-.68,6.93-4.25-.16-21.23,3.56-77.69,48.16-70.54,46.84,7.5,31.8,128.46,17.94,199.94-3.24,16.73,2.49,33.92,15.11,45.37,29.6,26.86,72.87,59.11,111.55,78.61,56.55,28.51,114.82,47.13,147.91,39.91,34.35-7.48,40.94-114.34,26.7-176.61-.37-1.62-1.4-2.99-2.83-3.82-9.1-5.35-45.76-24.3-107.96-23.87-4.96,.04-9.55,2.72-12.02,7.04-8.43,14.72-14.58,34.03-14.58,34.03-38.99-27.84-69.69-61.86-90.31-88.33-8.8-11.29-15.75-21.21-20.75-28.71-6.06-9.07-9.28-19.71-9.28-30.61v-36.04l114.21-10.2c-.1,.42-8.02,37.55-11.24,63.79-.73,6.04,2.19,11.96,7.44,15.04,13.62,8.01,42.41,22.42,78.24,26.07,5.78,.58,11.41-2.1,14.57-6.98,6.67-10.35,18.9-30.56,30.95-56.64,1.28-2.76,4.45-4.12,7.36-3.15l.07,.03c2.04,.68,3.56,2.38,3.98,4.48l15.59,76.26c.99,4.78,4.43,8.7,9.06,10.26,10.8,3.61,23.51,6.64,37.62,7.78,2.7,.21,5.32-1.01,6.85-3.23,6.88-10.01,26.37-40.51,36.8-79.1,.21-.77,.14-1.6-.18-2.33-.36-.81-1.01-1.46-1.83-1.81-2.48-1.06-4.96-2.1-7.44-3.14,45.42-26.58,71.93-59.43,69.6-93.31Zm-256.91,221.16c.16-1.08,1.08-1.94,2.19-1.99,36.94-1.62,75.66,8.89,85.74,15.43,.82,.53,1.37,1.4,1.53,2.36,6.9,37.4-.14,57.83-12,57.83-13.85,0-14.43-13.39-14.03-19.16,.09-1.48-.96-2.76-2.42-2.95l-16.28-2.04c-1.21-.16-2.4,.52-2.86,1.65-4.39,10.44-15.87,17.3-27.13,13.67-12.94-4.18-20.8-25.19-14.74-64.8Zm-33.32-199.19c-2.08-.5-4.23-.65-6.36-.46l-115.07,10.28v-16.29c0-8.04,4.44-15.41,11.54-19.18l15.45-8.18c6.29-3.34,10.93-9.12,12.82-15.98l4.43-16.12c2.03-7.38,8.14-12.87,15.66-14.17,13.74-2.4,28.12-4.16,42.97-5.17,93.24-6.4,172.53,18.47,188.65,56.92,.01,.01,.02,.03,.03,.06,0,.02,.02,.05,.03,.07h0c1.49,3.59,2.44,7.3,2.81,11.11,4.02,19.7,5.3,46.22,5.3,71.71h0c-84.42-31.56-161.88-50.69-178.24-54.6Z"/><path class="h" d="M229.71,318.71c1.01,3.04,4.58,4.31,7.31,2.65,148.96-90.51,341.64-71.59,377.8-67.04,3.12,.39,5.8-2.19,5.56-5.33-2.97-38.53-10.47-70.25-13.54-82.07-.78-3.02-3.29-5.3-6.36-5.79-223.87-35.94-362.47,71.36-387.25,92.51-2.45,2.09-3.38,5.44-2.36,8.49l18.85,56.58Z"/></g></g></g></g></svg>