<?xml version="1.0" encoding="UTF-8"?><svg xmlns="http://www.w3.org/2000/svg" xmlns:xlink="http://www.w3.org/1999/xlink" viewBox="0 0 2422.07 818.08"><defs><style>.f{fill:url(#e);}.g{fill:url(#d);}.h{fill:#061b5b;}.i{fill:#fff;font-family:MicrosoftSansSerif, Microsoft Sans Serif;font-size:380px;stroke:#b3b3b3;stroke-miterlimit:10;stroke-width:.5px;}</style><linearGradient id="d" x1="351.46" y1="22.78" x2="351.46" y2="706.51" gradientTransform="matrix(1, 0, 0, 1, 0, 0)" gradientUnits="userSpaceOnUse"><stop offset="0" stop-color="#526bff"/><stop offset="1" stop-color="#ff5a9d"/></linearGradient><linearGradient id="e" x1="351.46" y1="22.78" x2="351.46" y2="706.51" xlink:href="#d"/></defs><g id="a"/><g id="b"><g id="c"><g><path class="g" d="M504.95,49.58H197.97c-15.89,0-30.57,8.48-38.52,22.24L5.96,337.67c-7.95,13.76-7.95,30.72,0,44.48l153.49,265.86c7.95,13.76,22.63,22.24,38.52,22.24H504.95c15.89,0,30.57-8.48,38.52-22.24l153.49-265.86c7.95-13.76,7.95-30.72,0-44.48L543.47,71.82c-7.95-13.76-22.63-22.24-38.52-22.24Z"/><path class="f" d="M351.46,719.82c-9.15,0-18.31-2.36-26.47-7.07L59.13,559.26c-16.33-9.43-26.48-27-26.48-45.85V206.42c0-18.86,10.14-36.43,26.48-45.85L324.99,7.07c16.33-9.43,36.62-9.43,52.95,0l265.86,153.49c16.33,9.43,26.48,27,26.48,45.85v306.98c0,18.86-10.15,36.43-26.48,45.85l-265.86,153.49c-8.16,4.71-17.32,7.07-26.48,7.07Zm0-702.89c-6.22,0-12.45,1.6-18,4.81L67.6,175.23c-11.1,6.41-18,18.36-18,31.18v306.98c0,12.82,6.9,24.77,18,31.18l265.86,153.49c11.11,6.41,24.9,6.41,36.01,0l265.86-153.49c11.11-6.41,18-18.36,18-31.18V206.42c0-12.82-6.9-24.77-18-31.18L369.47,21.74c-5.55-3.21-11.78-4.81-18.01-4.81Z"/><g><path class="h" d="M568.03,311.78c-3.73-54.33-105.33-91.61-226.95-83.26-121.61,8.35-217.17,59.17-213.44,113.5,1.49,21.61,18.45,40.52,45.99,54.94,2.36,1.23,5.19-.5,5.18-3.17-.12-15.85,2.65-58,35.96-52.67,34.97,5.6,23.75,95.91,13.39,149.28-2.42,12.49,1.86,25.32,11.28,33.87,22.1,20.06,54.41,44.13,83.29,58.69,42.22,21.29,85.73,35.19,110.43,29.8,25.64-5.59,30.57-85.37,19.94-131.87-.28-1.21-1.05-2.23-2.11-2.85-6.8-4-34.16-18.14-80.61-17.83-3.7,.03-7.13,2.03-8.97,5.26-6.29,10.99-10.88,25.4-10.88,25.4-29.11-20.79-52.03-46.19-67.43-65.95-6.57-8.43-11.76-15.83-15.49-21.44-4.53-6.77-6.93-14.72-6.93-22.86v-26.91l85.27-7.62c-.07,.31-5.99,28.03-8.39,47.63-.55,4.51,1.63,8.93,5.56,11.23,10.17,5.98,31.67,16.74,58.42,19.47,4.32,.44,8.52-1.57,10.88-5.21,4.98-7.73,14.11-22.81,23.11-42.29,.96-2.06,3.33-3.08,5.5-2.35l.06,.02c1.52,.51,2.65,1.78,2.97,3.35l11.64,56.94c.74,3.57,3.31,6.5,6.77,7.66,8.06,2.7,17.55,4.95,28.09,5.81,2.01,.15,3.97-.75,5.12-2.41,5.14-7.47,19.69-30.25,27.48-59.06,.16-.58,.11-1.19-.13-1.74-.27-.61-.76-1.09-1.37-1.35-1.85-.79-3.7-1.57-5.55-2.34,33.91-19.84,53.7-44.37,51.96-69.67Zm-191.82,165.13c.12-.81,.81-1.45,1.63-1.49,27.58-1.21,56.49,6.64,64.02,11.52,.61,.4,1.02,1.05,1.14,1.77,5.15,27.93-.11,43.18-8.96,43.18-10.34,0-10.78-9.99-10.47-14.31,.07-1.1-.72-2.06-1.81-2.2l-12.16-1.53c-.9-.12-1.79,.38-2.14,1.23-3.28,7.79-11.85,12.91-20.25,10.21-9.66-3.12-15.53-18.81-11-48.38Zm-24.88-148.73c-1.55-.37-3.16-.49-4.75-.34l-85.92,7.68v-12.16c0-6,3.32-11.51,8.61-14.32l11.53-6.11c4.7-2.5,8.16-6.81,9.57-11.93l3.3-12.04c1.51-5.51,6.08-9.61,11.69-10.58,10.26-1.79,21-3.11,32.08-3.86,69.62-4.78,128.81,13.79,140.85,42.5,.01,.01,.02,.02,.02,.04,0,.02,.02,.04,.02,.06h0c1.11,2.68,1.82,5.45,2.1,8.29,3,14.71,3.96,34.51,3.96,53.54h0c-63.03-23.56-120.87-37.85-133.08-40.76Z"/><path class="h" d="M171.51,237.96c.76,2.27,3.42,3.22,5.46,1.98,111.22-67.58,255.08-53.45,282.07-50.05,2.33,.29,4.33-1.64,4.15-3.98-2.22-28.77-7.81-52.45-10.11-61.28-.59-2.25-2.45-3.95-4.75-4.32-167.15-26.84-270.63,53.28-289.13,69.07-1.83,1.56-2.52,4.06-1.76,6.34l14.07,42.24Z"/></g></g><text class="i" transform="translate(757.07 485.33) scale(1 1.1)"><tspan x="0" y="0">Phamous</tspan></text></g></g></svg>